<svg data-name="Layer 1" viewBox="0 0 500 500" xmlns="http://www.w3.org/2000/svg"><circle cx="250" cy="250" r="250" fill="#5f3dc4" class="fill-d3661c"></circle><circle cx="250" cy="250" r="203.65" fill="#ffffff" class="fill-fa7e1e"></circle><path d="M375.77 266.43H208.84a12.5 12.5 0 0 1 0-25h166.93a12.5 12.5 0 0 1 0 25ZM146.14 230.25a23.68 23.68 0 0 0-.07 47.35h.07a23.68 23.68 0 1 0 0-47.35ZM146.14 153.5a23.68 23.68 0 0 0-.07 47.35h.07a23.68 23.68 0 1 0 0-47.35ZM375.77 189.68H208.84a12.5 12.5 0 0 1 0-25h166.93a12.5 12.5 0 0 1 0 25ZM375.77 343.18H208.84a12.5 12.5 0 0 1 0-25h166.93a12.5 12.5 0 0 1 0 25ZM146.14 353.31a22.63 22.63 0 1 1 22.63-22.64 22.66 22.66 0 0 1-22.63 22.64Zm0-35.89a13.26 13.26 0 1 0 13.26 13.26 13.28 13.28 0 0 0-13.26-13.26Z" fill="#5f3dc4" class="fill-ffffff"></path></svg>